# xmcd
#
# Track frame offsets:
#	150
#	14967
#	28292
#	46475
#	70850
#	82012
#	99140
#	113422
#	131145
#	155900
#	159282
#
# Disc length: 2302 seconds
#
# Revision: 0
# Processed by: cddbd v1.4PL0 Copyright (c) Steve Scherf et al.
# Submitted via: dBpowerAMP V4.0
#
DISCID=9108fc0b
DTITLE=BREAKOUT - Na drugim brzegu teczy
DYEAR=1969
DGENRE=Blues
TTITLE0=Poszlabym za toba
TTITLE1=Nie ukrywaj - wszystko wiem
TTITLE2=Na drugim brzegu teczy
TTITLE3=Czy mnie jeszcze pamietasz
TTITLE4=Wolanie przez Dunajec
TTITLE5=Masz na to czas
TTITLE6=Gdybys kochal hej
TTITLE7=Powiedzielismy juz wszystko
TTITLE8=Gdzie chcesz isc
TTITLE9=Po ten ksiezyc zloty
TTITLE10=Za siodma gora (bonus)
EXTD=
EXTT0=
EXTT1=
EXTT2=
EXTT3=
EXTT4=
EXTT5=
EXTT6=
EXTT7=
EXTT8=
EXTT9=
EXTT10=
PLAYORDER=
